<svg width="150" height="150" xmlns="http://www.w3.org/2000/svg">

 <g>
  <title>background</title>
  <rect fill="none" id="canvas_background" height="402" width="582" y="-1" x="-1"/>
 </g>
 <g>
  <title>Layer 1</title>
  <ellipse stroke="#000" ry="74.493277" rx="73.546332" id="svg_7" cy="75.453737" cx="74.842165" stroke-width="0" fill="#ffffff"/>
  <path fill="#4caf50" id="svg_2" d="m121.1,57.9l-22,16.4l0,35.8l15.4,0c3.6,0 6.6,-2.9 6.6,-6.6l0,-45.6z" class="st5"/>
  <path fill="#1e88e5" id="svg_3" d="m28.9,57.9l21.9,16.5l0,35.8l-15.3,0c-3.6,0 -6.6,-2.9 -6.6,-6.6l0,-45.7z" class="st6"/>
  <polygon fill="#e53935" id="svg_4" points="99.1,46.9 75,65 50.9,46.9 50.9,74.3 75,92.4 99.1,74.3  " class="st7"/>
  <path fill="#c62828" id="svg_5" d="m28.9,49.3l0,8.6l21.9,16.5l0,-27.5l-6.8,-5.1c-1.6,-1.2 -3.6,-1.9 -5.7,-1.9l0,0c-5.2,0 -9.4,4.2 -9.4,9.4z" class="st8"/>
  <path fill="#fbc02d" id="svg_6" d="m121.1,49.3l0,8.6l-22,16.4l0,-27.4l6.9,-5.1c1.6,-1.2 3.6,-1.9 5.7,-1.9l0,0c5.2,0 9.4,4.2 9.4,9.4z" class="st9"/>
 </g>
</svg>